<?xml version="1.0" encoding="iso-8859-1"?>
<!-- Generator: Adobe Illustrator 19.0.0, SVG Export Plug-In . SVG Version: 6.00 Build 0)  -->
<svg version="1.1" id="Capa_1" xmlns="http://www.w3.org/2000/svg" xmlns:xlink="http://www.w3.org/1999/xlink" x="0px" y="0px"
	 viewBox="0 0 512 512" style="enable-background:new 0 0 512 512;" xml:space="preserve">
<path style="fill:#F6A96C;" d="M421,360h-30V240h30c33.091,0,60,26.909,60,60S454.091,360,421,360z"/>
<path style="fill:#FFBD86;" d="M121,360H91c-33.091,0-60-26.909-60-60s26.909-60,60-60h30V360z"/>
<path style="fill:#FED2A4;" d="M421,270v75c0,51.301-23.401,98.899-60,129.2L331,450H181l-30,24.2c-36.599-30.3-60-77.899-60-129.2
	v-75l4.2-2.999l24.3,11.4l0.899-28.2L179.5,210l36.299-30h91.8l24.901,30l59.101,40.201l0.899,28.2l24.3-11.4L421,270z"/>
<path style="fill:#FFBD86;" d="M421,270v75c0,51.301-23.401,98.899-60,129.2L331,450h-75V180h51.599l24.901,30l59.101,40.201
	l0.899,28.2l24.3-11.4L421,270z"/>
<polygon style="fill:#EDE9E8;" points="179.418,368.291 120.328,250.113 95.277,267.1 152.582,381.709 "/>
<polygon style="fill:#DFD7D5;" points="359.418,381.709 416.723,267.1 391.672,250.113 332.582,368.291 "/>
<path style="fill:#913F02;" d="M332.518,210c6.969,34.191,37.266,60,73.482,60h15v-60l-33.75-30L332.518,210z"/>
<path style="fill:#B34F03;" d="M179.482,210L133.5,180L91,210v60h15C142.216,270,172.513,244.191,179.482,210z"/>
<path style="fill:#00ABE9;" d="M91,0v210h330V0H91z"/>
<rect x="256" style="fill:#0095FF;" width="165" height="210"/>
<rect x="301" y="270" style="fill:#444444;" width="30" height="30"/>
<rect x="181" y="270" style="fill:#5A5A5A;" width="30" height="30"/>
<polygon style="fill:#EDE9E8;" points="301,90 301,120 271,120 271,150 241,150 241,120 211,120 211,90 241,90 241,60 271,60 
	271,90 "/>
<polygon style="fill:#DFD7D5;" points="271,150 256,150 256,60 271,60 271,90 301,90 301,120 271,120 "/>
<path style="fill:#00ABE9;" d="M361,360v114.2c-28.5,23.701-65.099,37.8-105,37.8s-76.5-14.099-105-37.8V360H361z"/>
<path style="fill:#0095FF;" d="M256,360h105v114.2c-28.5,23.701-65.099,37.8-105,37.8V360z"/>
<g>
</g>
<g>
</g>
<g>
</g>
<g>
</g>
<g>
</g>
<g>
</g>
<g>
</g>
<g>
</g>
<g>
</g>
<g>
</g>
<g>
</g>
<g>
</g>
<g>
</g>
<g>
</g>
<g>
</g>
</svg>
